<?xml version="1.0" encoding="UTF-8" standalone="no"?>
<!-- Created with Inkscape (http://www.inkscape.org/) -->

<svg
   xmlns:dc="http://purl.org/dc/elements/1.1/"
   xmlns:cc="http://creativecommons.org/ns#"
   xmlns:rdf="http://www.w3.org/1999/02/22-rdf-syntax-ns#"
   xmlns:svg="http://www.w3.org/2000/svg"
   xmlns="http://www.w3.org/2000/svg"
   xmlns:xlink="http://www.w3.org/1999/xlink"
   xmlns:sodipodi="http://sodipodi.sourceforge.net/DTD/sodipodi-0.dtd"
   xmlns:inkscape="http://www.inkscape.org/namespaces/inkscape"
   width="48"
   height="48"
   id="svg2"
   version="1.1"
   inkscape:version="0.48.1 r9760"
   sodipodi:docname="cateye-small.svg"
   style="enable-background:new"
   inkscape:export-filename="/home/imizus/Projects/cateye/CatEye/res/cateye-small.png"
   inkscape:export-xdpi="45"
   inkscape:export-ydpi="45">
  <defs
     id="defs4">
    <linearGradient
       id="linearGradient5337">
      <stop
         style="stop-color:#000000;stop-opacity:1;"
         offset="0"
         id="stop5339" />
      <stop
         style="stop-color:#000000;stop-opacity:0;"
         offset="1"
         id="stop5343" />
    </linearGradient>
    <linearGradient
       id="linearGradient5329">
      <stop
         id="stop5331"
         offset="0"
         style="stop-color:#89b300;stop-opacity:1;" />
      <stop
         style="stop-color:#7fa600;stop-opacity:1;"
         offset="0.42981702"
         id="stop5333" />
      <stop
         id="stop5335"
         offset="1"
         style="stop-color:#587300;stop-opacity:1;" />
    </linearGradient>
    <linearGradient
       id="linearGradient5212">
      <stop
         style="stop-color:#b6ea00;stop-opacity:1;"
         offset="0"
         id="stop5214" />
      <stop
         id="stop5220"
         offset="0.5"
         style="stop-color:#9bc800;stop-opacity:1;" />
      <stop
         style="stop-color:#709000;stop-opacity:1;"
         offset="1"
         id="stop5216" />
    </linearGradient>
    <linearGradient
       id="linearGradient5173">
      <stop
         style="stop-color:#e1e944;stop-opacity:1;"
         offset="0"
         id="stop5175" />
      <stop
         style="stop-color:#eeee00;stop-opacity:0;"
         offset="1"
         id="stop5177" />
    </linearGradient>
    <filter
       inkscape:collect="always"
       id="filter5181"
       color-interpolation-filters="sRGB">
      <feBlend
         inkscape:collect="always"
         mode="multiply"
         in2="BackgroundImage"
         id="feBlend5183" />
    </filter>
    <radialGradient
       inkscape:collect="always"
       xlink:href="#linearGradient5212"
       id="radialGradient5218"
       cx="340.47516"
       cy="396.34482"
       fx="340.47516"
       fy="396.34482"
       r="133.72549"
       gradientTransform="matrix(0.15941011,0,0,0.12238158,-30.521276,981.68507)"
       gradientUnits="userSpaceOnUse" />
    <linearGradient
       inkscape:collect="always"
       xlink:href="#linearGradient5173"
       id="linearGradient5249"
       x1="343.05014"
       y1="393.01355"
       x2="364.09741"
       y2="396.17773"
       gradientUnits="userSpaceOnUse"
       spreadMethod="reflect" />
    <filter
       color-interpolation-filters="sRGB"
       inkscape:collect="always"
       id="filter5181-0">
      <feBlend
         inkscape:collect="always"
         mode="multiply"
         in2="BackgroundImage"
         id="feBlend5183-7" />
    </filter>
    <filter
       inkscape:collect="always"
       id="filter5368"
       color-interpolation-filters="sRGB">
      <feGaussianBlur
         inkscape:collect="always"
         stdDeviation="2.6497476"
         id="feGaussianBlur5370" />
    </filter>
    <linearGradient
       inkscape:collect="always"
       xlink:href="#linearGradient5337"
       id="linearGradient5390"
       x1="327.36096"
       y1="419.50162"
       x2="447.93066"
       y2="452.83667"
       gradientUnits="userSpaceOnUse"
       spreadMethod="reflect"
       gradientTransform="translate(-180,491.42857)" />
    <filter
       inkscape:collect="always"
       id="filter5396"
       x="-0.15747885"
       width="1.3149577"
       y="-0.044305496"
       height="1.088611"
       color-interpolation-filters="sRGB">
      <feGaussianBlur
         inkscape:collect="always"
         stdDeviation="2.3351069"
         id="feGaussianBlur5398" />
    </filter>
    <linearGradient
       inkscape:collect="always"
       xlink:href="#linearGradient5173-0"
       id="linearGradient5249-6"
       x1="343.05014"
       y1="393.01355"
       x2="364.09741"
       y2="396.17773"
       gradientUnits="userSpaceOnUse"
       spreadMethod="reflect" />
    <linearGradient
       id="linearGradient5173-0">
      <stop
         style="stop-color:#e1e944;stop-opacity:1;"
         offset="0"
         id="stop5175-6" />
      <stop
         style="stop-color:#eeee00;stop-opacity:0;"
         offset="1"
         id="stop5177-9" />
    </linearGradient>
  </defs>
  <sodipodi:namedview
     id="base"
     pagecolor="#ffffff"
     bordercolor="#666666"
     borderopacity="1.0"
     inkscape:pageopacity="0.0"
     inkscape:pageshadow="2"
     inkscape:zoom="3.2"
     inkscape:cx="-33.744139"
     inkscape:cy="45.816479"
     inkscape:document-units="px"
     inkscape:current-layer="layer6"
     showgrid="false"
     inkscape:window-width="1280"
     inkscape:window-height="949"
     inkscape:window-x="0"
     inkscape:window-y="24"
     inkscape:window-maximized="1" />
  <metadata
     id="metadata7">
    <rdf:RDF>
      <cc:Work
         rdf:about="">
        <dc:format>image/svg+xml</dc:format>
        <dc:type
           rdf:resource="http://purl.org/dc/dcmitype/StillImage" />
        <dc:title></dc:title>
      </cc:Work>
    </rdf:RDF>
  </metadata>
  <g
     inkscape:groupmode="layer"
     id="layer4"
     inkscape:label="eye-back"
     style="opacity:0.91999996;display:inline"
     transform="translate(0,-1004.3622)">
    <path
       id="path5142-0"
       style="fill:url(#radialGradient5218);fill-opacity:1;stroke:none"
       d="m 9.9774015,1013.8249 c -2.2846113,0.5027 -3.6447335,1.0055 -4.4282883,1.5084 -2.5703852,4.6208 -4.0350228,9.6235 -2.4645864,15.4799 1.2680674,3.1171 4.2539074,9.6785 12.9232812,13.6091 3.473231,1.5749 6.994745,2.1959 13.175358,2.1287 4.560066,-0.5637 8.175647,-1.7443 12.805564,-7.1911 1.4492,-1.7051 3.469592,-6.5348 3.017942,-9.3756 -3.225165,-7.4912 -22.357771,-14.6111 -32.734483,-15.8368 z"
       inkscape:connector-curvature="0"
       sodipodi:nodetypes="cccscsccc" />
    <path
       style="opacity:0.93999999;fill:#000000;stroke:none;display:inline;filter:url(#filter5181)"
       d="m 29.90637,888.44761 -9.59645,-30.05203 -4.54569,-41.66879 0,-26.76905 4.04061,-5.55584 18.68783,1.76777 28.78934,-2.27284 -5.80837,2.52538 -15.90991,6.56599 C 30.2544,820.9876 23.00684,853.29828 29.90637,888.44761 z"
       id="path5185"
       inkscape:connector-curvature="0"
       sodipodi:nodetypes="cccccccccc"
       transform="matrix(0.15941011,0,0,0.15717592,-1.8274546,890.65377)" />
  </g>
  <g
     inkscape:groupmode="layer"
     id="layer3"
     inkscape:label="lines"
     style="opacity:0.93999999;display:inline;filter:url(#filter5181)"
     transform="translate(0,-1004.3622)">
    <path
       style="font-size:medium;font-style:normal;font-variant:normal;font-weight:normal;font-stretch:normal;text-indent:0;text-align:start;text-decoration:none;line-height:normal;letter-spacing:normal;word-spacing:normal;text-transform:none;direction:ltr;block-progression:tb;writing-mode:lr-tb;text-anchor:start;baseline-shift:baseline;color:#000000;fill:#000000;fill-opacity:1;stroke:none;stroke-width:4;marker:none;visibility:visible;display:inline;overflow:visible;enable-background:accumulate;font-family:Sans;-inkscape-font-specification:Sans"
       d="m 6.0035653,1012.9058 c -2.6836239,0.3155 -4.7025964,0.2062 -4.7025964,0.2062 l -0.2241726,-0.039 c -0.32678113,0.4087 -0.68306564,1.0008 -0.71734301,1.9256 l 0.0880615,0.5772 c 0.63164101,2.6025 -0.64099294,8.7789 1.25696191,15.435 2.2568614,7.9147 9.1973253,13.1713 14.8101923,14.8857 3.362925,1.0273 6.83391,1.8466 11.910927,1.8223 5.634591,-0.027 15.132886,-2.8754 15.132886,-2.8754 0,0 -9.543455,0.9959 -15.142849,0.7455 -5.671038,-0.2539 -8.595113,-1.0389 -12.113551,-2.397 -6.5796397,-2.5395 -11.5102126,-7.8304 -12.8922931,-12.7362 -1.6342951,-5.8012 -2.4193942,-15.0929 -2.4126971,-15.295 l 0.4284174,-1.0905 c 0.3073947,0.047 2.0843322,0.691 4.6278741,0.4821 2.4929695,-0.2049 3.4544449,-0.3041 6.1821247,0.018 5.151416,0.6084 12.066932,2.2213 18.297291,4.8731 6.230355,2.652 11.765745,6.245 14.202444,10.5014 2.543663,4.4432 3.226962,8.4697 3.226962,8.4697 0,0 -0.08754,-6.635 -2.674009,-11.153 -2.562923,-4.4769 -8.20575,-8.3267 -14.501338,-11.0065 -6.295588,-2.6795 -13.24808,-4.0461 -18.476629,-4.6358 -2.084686,-0.2351 -4.5571649,1.0815 -6.3066641,1.2867 z"
       id="path3838"
       inkscape:connector-curvature="0"
       sodipodi:nodetypes="cccccssscsssccsssscssssc" />
    <path
       style="fill:none;stroke:#000000;stroke-width:0.47486725;stroke-linecap:butt;stroke-linejoin:miter;stroke-miterlimit:4;stroke-opacity:1;stroke-dasharray:none"
       d="m 29.381337,1046.5318 c 4.573243,-0.2866 9.678036,-3.3281 12.607393,-7.1719 1.379797,-1.8107 4.160574,-7.8469 2.364806,-11.0494"
       id="path5140"
       inkscape:connector-curvature="0"
       sodipodi:nodetypes="csc" />
    <path
       style="fill:none;stroke:#000000;stroke-width:0.15828907px;stroke-linecap:butt;stroke-linejoin:miter;stroke-opacity:1"
       d="m 10.460488,1014.2614 c -3.3715563,0.026 -4.1680791,0.5294 -4.9516285,1.0322 -2.5703905,4.6209 -3.9947691,9.6632 -2.2946569,15.758"
       id="path5142"
       inkscape:connector-curvature="0"
       sodipodi:nodetypes="ccc" />
  </g>
  <g
     inkscape:groupmode="layer"
     id="layer5"
     inkscape:label="Center"
     style="display:inline"
     transform="translate(0,-1004.3622)">
    <path
       style="opacity:0.51152074;fill:url(#linearGradient5249);fill-opacity:1;stroke:none;display:inline;filter:url(#filter5396)"
       d="m 339.29888,453.09501 c 32.73358,-45.53885 24.56025,-88.54637 7.21152,-126.49123 -28.09178,36.05156 -23.88187,82.84238 -7.21152,126.49123 z"
       id="path5144-3"
       inkscape:connector-curvature="0"
       sodipodi:nodetypes="ccc"
       transform="matrix(0.62626539,0,0,0.22605171,-190.4662,941.92662)" />
  </g>
  <g
     inkscape:groupmode="layer"
     id="layer10"
     inkscape:label="center-lines">
    <path
       style="opacity:0.38135591;fill:#8eb000;fill-opacity:1;stroke:none;display:inline;enable-background:new"
       d="m 22.235492,36.407535 c 1.620878,-1.320242 5.632649,-3.540131 3.838993,-3.851302 -1.271224,-0.220538 8.546247,1.515088 12.849119,0.694214 -1.732564,-0.205066 -13.262132,-1.188327 -11.527725,-2.729608 0.462865,-0.411323 8.438677,-0.63207 11.143924,-0.795053 -6.695876,-0.775141 -9.915799,-2.035512 -9.875026,-2.625822 0.109633,-1.587321 10.241131,-0.529947 10.293032,-0.562581 0.480839,-0.302358 -9.786563,-2.383046 -9.789015,-2.854407 -0.0033,-0.584847 10.02075,0.125564 11.130594,0.07323 -1.388309,-0.02412 -11.682945,-1.371678 -11.616501,-2.856489 0.01951,-0.435566 1.528931,-0.157409 4.269781,-1.678614 -2.123688,-0.06328 -4.883616,-0.41269 -5.032024,-0.81653 -0.692008,-1.88306 -1.591209,-3.690072 -2.428962,-5.411269 -0.433912,1.077082 -2.528933,2.253097 -3.970779,5.139997 -0.71577,1.433128 -11.444888,-2.365206 -9.961873,-1.636095 2.312694,1.137023 10.236652,4.367983 6.95053,7.282399 -1.204047,1.067856 -7.040046,0.65327 -9.571531,-0.01482 0.280018,0.903139 8.16823,2.144549 9.933378,3.057117 1.213213,0.627224 -6.941174,2.374656 -10.245699,1.899255 1.739103,0.882507 10.564411,0.69808 10.638806,1.116403 0.0714,0.401423 -5.394953,2.409642 -6.158254,4.002192 1.068257,-0.291218 6.555636,-2.22576 6.641918,-1.94029 0.476821,1.577653 1.227226,3.11002 2.487314,4.508081 z"
       id="path5144-3-3"
       inkscape:connector-curvature="0"
       sodipodi:nodetypes="cscscssscscscssscscscsc" />
  </g>
  <g
     inkscape:groupmode="layer"
     id="layer6"
     inkscape:label="Center-black"
     style="display:inline"
     transform="translate(0,-1004.3622)">
    <path
       style="opacity:0.93999999;fill:#000000;stroke:#000000;stroke-width:1px;stroke-linecap:butt;stroke-linejoin:miter;stroke-opacity:1;display:inline;filter:url(#filter5181-0)"
       d="m 153.51878,930.86029 c 25.52805,-34.40715 28.91728,-73.59622 10.71429,-121.42857 -23.40572,33.08256 -28.86488,73.65542 -10.71429,121.42857 z"
       id="path5144"
       inkscape:connector-curvature="0"
       sodipodi:nodetypes="ccc"
       transform="matrix(0.22110544,0,0,0.18065756,-11.331219,871.98879)" />
  </g>
  <g
     inkscape:groupmode="layer"
     id="layer7"
     inkscape:label="shadows"
     style="display:inline"
     transform="translate(0,-1004.3622)">
    <path
       style="opacity:0.26728109;fill:url(#linearGradient5390);fill-opacity:1;stroke:none;filter:url(#filter5368)"
       d="m 47.28432,793.75249 c 0,0 -4.72156,39.98661 -1.51523,59.599 3.09354,18.92248 3.8626,31.98674 19.69798,54.04316 14.14213,19.69797 47.18445,42.23355 86.87311,46.46701 37.88072,4.04061 67.13099,-3.68622 96.46957,-28.28426 25.81442,-21.64333 37.88073,-51.01271 37.88073,-51.01271 0,0 11.61675,4.54569 9.09137,14.64721 -2.52538,10.10153 -4.54569,22.72844 -4.54569,22.72844 l -9.59645,24.24366 -12.6269,17.67767 -20.20305,17.17259 -19.69798,12.12183 -25.75889,8.5863 -47.98224,-1.01016 c 0,0 -76.7716,-6.56599 -114.65232,-77.27667 -37.88072,-70.71067 6.56599,-119.70307 6.56599,-119.70307 z"
       id="path5319"
       inkscape:connector-curvature="0"
       sodipodi:nodetypes="csssscscccccccsc"
       transform="matrix(0.15941011,0,0,0.15717592,-1.8274546,890.65377)" />
  </g>
  <g
     inkscape:groupmode="layer"
     id="layer8"
     inkscape:label="blink"
     style="display:inline"
     transform="translate(0,-1004.3622)">
    <path
       style="opacity:0.43404254;fill:#fbffff;fill-opacity:1;stroke:none"
       d="m 18.212671,1031.5853 c -0.323978,-2.703 -0.08809,-4.314 0.113868,-9.3183 -4.482156,-1.0965 -6.468363,-2.1124 -9.420744,-3.9816 -4.3892694,5.2648 -2.6281023,11.4624 -0.3715907,14.6471 3.0435787,0.091 6.0464017,0.3025 9.6784667,-1.3472 z"
       id="path5372"
       inkscape:connector-curvature="0"
       sodipodi:nodetypes="ccccc" />
  </g>
</svg>
