<?xml version="1.0" encoding="UTF-8" standalone="no"?>
<!-- Created with Inkscape (http://www.inkscape.org/) -->

<svg
   xmlns:dc="http://purl.org/dc/elements/1.1/"
   xmlns:cc="http://creativecommons.org/ns#"
   xmlns:rdf="http://www.w3.org/1999/02/22-rdf-syntax-ns#"
   xmlns:svg="http://www.w3.org/2000/svg"
   xmlns="http://www.w3.org/2000/svg"
   xmlns:xlink="http://www.w3.org/1999/xlink"
   xmlns:sodipodi="http://sodipodi.sourceforge.net/DTD/sodipodi-0.dtd"
   xmlns:inkscape="http://www.inkscape.org/namespaces/inkscape"
   width="24"
   height="24"
   id="svg2"
   version="1.1"
   inkscape:version="0.48.1 r9760"
   sodipodi:docname="cateye-small.svg"
   style="enable-background:new"
   inkscape:export-filename="/home/imizus/Projects/CatEye/CatEye.UI.Gtk/res/png/cateye-16x16.png"
   inkscape:export-xdpi="60"
   inkscape:export-ydpi="60">
  <defs
     id="defs4">
    <linearGradient
       id="linearGradient5337">
      <stop
         style="stop-color:#000000;stop-opacity:1;"
         offset="0"
         id="stop5339" />
      <stop
         style="stop-color:#000000;stop-opacity:0;"
         offset="1"
         id="stop5343" />
    </linearGradient>
    <linearGradient
       id="linearGradient5329">
      <stop
         id="stop5331"
         offset="0"
         style="stop-color:#89b300;stop-opacity:1;" />
      <stop
         style="stop-color:#7fa600;stop-opacity:1;"
         offset="0.42981702"
         id="stop5333" />
      <stop
         id="stop5335"
         offset="1"
         style="stop-color:#587300;stop-opacity:1;" />
    </linearGradient>
    <linearGradient
       id="linearGradient5212">
      <stop
         id="stop3793"
         offset="0"
         style="stop-color:#fff30d;stop-opacity:1;" />
      <stop
         style="stop-color:#e7d407;stop-opacity:1;"
         offset="0.5"
         id="stop3797" />
      <stop
         style="stop-color:#a68d00;stop-opacity:1;"
         offset="1"
         id="stop5216" />
    </linearGradient>
    <linearGradient
       id="linearGradient5173">
      <stop
         style="stop-color:#4fa806;stop-opacity:1;"
         offset="0"
         id="stop5175" />
      <stop
         id="stop3795"
         offset="0.5"
         style="stop-color:#b5fc4b;stop-opacity:1;" />
      <stop
         style="stop-color:#b5ff1a;stop-opacity:0;"
         offset="1"
         id="stop5177" />
    </linearGradient>
    <filter
       inkscape:collect="always"
       id="filter5181"
       color-interpolation-filters="sRGB">
      <feBlend
         inkscape:collect="always"
         mode="multiply"
         in2="BackgroundImage"
         id="feBlend5183" />
    </filter>
    <radialGradient
       inkscape:collect="always"
       xlink:href="#linearGradient5212"
       id="radialGradient5218"
       cx="340.47516"
       cy="396.34482"
       fx="340.47516"
       fy="396.34482"
       r="133.72549"
       gradientTransform="matrix(0.08185101,0,0,0.06373148,-15.532844,1015.27)"
       gradientUnits="userSpaceOnUse" />
    <linearGradient
       inkscape:collect="always"
       xlink:href="#linearGradient5173"
       id="linearGradient5249"
       x1="343.05014"
       y1="393.01355"
       x2="357.10901"
       y2="393.59125"
       gradientUnits="userSpaceOnUse"
       spreadMethod="reflect" />
    <filter
       color-interpolation-filters="sRGB"
       inkscape:collect="always"
       id="filter5181-0">
      <feBlend
         inkscape:collect="always"
         mode="multiply"
         in2="BackgroundImage"
         id="feBlend5183-7" />
    </filter>
    <filter
       inkscape:collect="always"
       id="filter5368"
       color-interpolation-filters="sRGB">
      <feGaussianBlur
         inkscape:collect="always"
         stdDeviation="2.6497476"
         id="feGaussianBlur5370" />
    </filter>
    <linearGradient
       inkscape:collect="always"
       xlink:href="#linearGradient5337"
       id="linearGradient5390"
       x1="327.36096"
       y1="419.50162"
       x2="447.93066"
       y2="452.83667"
       gradientUnits="userSpaceOnUse"
       spreadMethod="reflect"
       gradientTransform="translate(-180,491.42857)" />
    <filter
       inkscape:collect="always"
       id="filter5396"
       x="-0.15747885"
       width="1.3149577"
       y="-0.044305496"
       height="1.088611"
       color-interpolation-filters="sRGB">
      <feGaussianBlur
         inkscape:collect="always"
         stdDeviation="2.3351069"
         id="feGaussianBlur5398" />
    </filter>
    <linearGradient
       inkscape:collect="always"
       xlink:href="#linearGradient5173-0"
       id="linearGradient5249-6"
       x1="343.05014"
       y1="393.01355"
       x2="364.09741"
       y2="396.17773"
       gradientUnits="userSpaceOnUse"
       spreadMethod="reflect" />
    <linearGradient
       id="linearGradient5173-0">
      <stop
         style="stop-color:#e1e944;stop-opacity:1;"
         offset="0"
         id="stop5175-6" />
      <stop
         style="stop-color:#eeee00;stop-opacity:0;"
         offset="1"
         id="stop5177-9" />
    </linearGradient>
  </defs>
  <sodipodi:namedview
     id="base"
     pagecolor="#ffffff"
     bordercolor="#666666"
     borderopacity="1.0"
     inkscape:pageopacity="0.0"
     inkscape:pageshadow="2"
     inkscape:zoom="1.1313709"
     inkscape:cx="-187.51608"
     inkscape:cy="12.649563"
     inkscape:document-units="px"
     inkscape:current-layer="layer3"
     showgrid="false"
     inkscape:window-width="1280"
     inkscape:window-height="949"
     inkscape:window-x="0"
     inkscape:window-y="24"
     inkscape:window-maximized="1" />
  <metadata
     id="metadata7">
    <rdf:RDF>
      <cc:Work
         rdf:about="">
        <dc:format>image/svg+xml</dc:format>
        <dc:type
           rdf:resource="http://purl.org/dc/dcmitype/StillImage" />
        <dc:title></dc:title>
      </cc:Work>
    </rdf:RDF>
  </metadata>
  <g
     inkscape:groupmode="layer"
     id="layer4"
     inkscape:label="eye-back"
     style="opacity:0.91999996;display:inline"
     transform="translate(0,-1028.3622)"
     sodipodi:insensitive="true">
    <path
       id="path5142-0"
       style="fill:url(#radialGradient5218);fill-opacity:1;stroke:none"
       d="m 5.2616802,1032.0071 c -1.1730611,0.2619 -1.8714317,0.5237 -2.2737574,0.7856 -1.3197949,2.4063 -2.07183036,5.0116 -1.265471,8.0612 0.6511045,1.6234 2.1842192,5.0402 6.6356111,7.0872 1.7833721,0.8201 3.5915351,1.1435 6.7650431,1.1086 2.34142,-0.2937 4.197883,-0.9084 6.575169,-3.7449 0.744109,-0.8879 1.781502,-3.4031 1.549598,-4.8825 -1.656,-3.9011 -11.479862,-7.6088 -16.8079077,-8.2471 z"
       inkscape:connector-curvature="0"
       sodipodi:nodetypes="cccscsccc" />
    <path
       style="opacity:0.93999999;fill:#000000;stroke:none;display:inline;filter:url(#filter5181)"
       d="m 29.90637,888.44761 -9.59645,-30.05203 -4.54569,-41.66879 0,-26.76905 4.04061,-5.55584 18.68783,1.76777 28.78934,-2.27284 -5.80837,2.52538 -15.90991,6.56599 C 30.2544,820.9876 23.00684,853.29828 29.90637,888.44761 z"
       id="path5185"
       inkscape:connector-curvature="0"
       sodipodi:nodetypes="cccccccccc"
       transform="matrix(0.08185101,0,0,0.08185101,-0.79966307,967.86454)" />
  </g>
  <g
     inkscape:groupmode="layer"
     id="layer3"
     inkscape:label="lines"
     style="opacity:0.93999999;display:inline;filter:url(#filter5181)"
     transform="translate(0,-1028.3622)">
    <path
       style="font-size:medium;font-style:normal;font-variant:normal;font-weight:normal;font-stretch:normal;text-indent:0;text-align:start;text-decoration:none;line-height:normal;letter-spacing:normal;word-spacing:normal;text-transform:none;direction:ltr;block-progression:tb;writing-mode:lr-tb;text-anchor:start;baseline-shift:baseline;color:#000000;fill:#000000;fill-opacity:1;stroke:none;stroke-width:4;marker:none;visibility:visible;display:inline;overflow:visible;enable-background:accumulate;font-family:Sans;-inkscape-font-specification:Sans"
       d="m 3.2212668,1031.5286 c -1.3779387,0.1642 -2.41460356,0.1073 -2.41460356,0.1073 l -0.1151047,-0.02 c -0.16778969,0.2129 -0.35072766,0.5213 -0.368328,1.0028 l 0.0452155,0.3006 c 0.32432353,1.3552 -0.32912518,4.5717 0.64540186,8.0379 1.158812,4.1217 4.7224757,6.5685 7.6044681,7.4613 1.726734,0.535 3.508952,0.9616 6.115807,0.9489 2.893147,-0.014 7.770158,-1.2067 7.770158,-1.2067 0,0 -4.623984,0.353 -7.49906,0.2225 -2.911861,-0.1321 -4.413262,-0.4858 -6.2198469,-1.193 -3.3783932,-1.3225 -5.9275314,-3.7967 -6.6196995,-6.3564 -0.5629344,-2.0817 -1.51848043,-8.0255 -1.51504122,-8.1307 l 0.21997609,-0.5678 c 0.15783473,0.024 1.07022483,0.636 2.37623663,0.5272 1.2800436,-0.1067 2.2709095,-0.324 3.6714687,-0.1557 2.645055,0.3169 5.6987252,1.0463 8.8977752,2.4273 3.19905,1.381 6.041261,3.2521 7.292413,5.4687 1.306074,2.3138 1.656922,4.4107 1.656922,4.4107 0,0 -0.04495,-2.8739 -1.373001,-5.2266 -1.315963,-2.3315 -4.047612,-4.6126 -7.280156,-6.008 -3.232544,-1.3955 -5.476558,-2.1071 -9.3213143,-2.359 -1.0750896,-0.07 -2.6713872,0.203 -3.5696878,0.31 z"
       id="path3838"
       inkscape:connector-curvature="0"
       sodipodi:nodetypes="cccccssscsssccsssscssssc" />
    <path
       style="fill:none;stroke:#000000;stroke-width:0.4;stroke-linecap:butt;stroke-linejoin:miter;stroke-miterlimit:4;stroke-opacity:1;stroke-dasharray:none"
       d="m 15.22486,1049.0396 c 2.348185,-0.1492 4.969301,-1.7331 6.473415,-3.7348 0.708473,-0.9429 2.136296,-4.0864 1.214237,-5.7541"
       id="path5140"
       inkscape:connector-curvature="0"
       sodipodi:nodetypes="csc" />
  </g>
  <g
     inkscape:groupmode="layer"
     id="layer5"
     inkscape:label="Center"
     style="display:inline"
     transform="translate(0,-1028.3622)"
     sodipodi:insensitive="true">
    <path
       style="opacity:0.51152074;fill:url(#linearGradient5249);fill-opacity:1;stroke:none;display:inline;filter:url(#filter5396)"
       d="m 339.29888,453.09501 c 32.73358,-45.53885 22.60565,-82.43152 5.25692,-120.37638 -28.09178,36.05156 -21.92727,76.72753 -5.25692,120.37638 z"
       id="path5144-3"
       inkscape:connector-curvature="0"
       sodipodi:nodetypes="ccc"
       transform="matrix(0.27857427,0,0,0.10411319,-83.139459,998.80188)" />
  </g>
  <g
     inkscape:groupmode="layer"
     id="layer10"
     inkscape:label="center-lines"
     style="display:inline"
     transform="translate(0,-24)"
     sodipodi:insensitive="true" />
  <g
     inkscape:groupmode="layer"
     id="layer6"
     inkscape:label="Center-black"
     style="display:inline"
     transform="translate(0,-1028.3622)"
     sodipodi:insensitive="true">
    <path
       style="opacity:0.93999999;fill:#000000;stroke:#000000;stroke-width:9.77385616;stroke-linecap:butt;stroke-linejoin:miter;stroke-miterlimit:4;stroke-opacity:1;stroke-dasharray:none;display:inline;filter:url(#filter5181-0)"
       d="m 153.51878,930.86029 c 25.52805,-34.40715 28.91728,-73.59622 10.71429,-121.42857 -23.40572,33.08256 -28.86488,73.65542 -10.71429,121.42857 z"
       id="path5144"
       inkscape:connector-curvature="0"
       sodipodi:nodetypes="ccc"
       transform="matrix(0.08185101,0,0,0.08185101,-0.62623921,968.09576)" />
  </g>
  <g
     inkscape:groupmode="layer"
     id="layer7"
     inkscape:label="shadows"
     style="display:inline"
     transform="translate(0,-1028.3622)"
     sodipodi:insensitive="true">
    <path
       style="opacity:0.26728109;fill:url(#linearGradient5390);fill-opacity:1;stroke:none;filter:url(#filter5368)"
       d="m 47.28432,793.75249 c 0,0 -4.72156,39.98661 -1.51523,59.599 3.09354,18.92248 3.8626,31.98674 19.69798,54.04316 14.14213,19.69797 47.18445,42.23355 86.87311,46.46701 37.88072,4.04061 67.13099,-3.68622 96.46957,-28.28426 25.81442,-21.64333 37.88073,-51.01271 37.88073,-51.01271 0,0 11.61675,4.54569 9.09137,14.64721 -2.52538,10.10153 -4.54569,22.72844 -4.54569,22.72844 l -9.59645,24.24366 -12.6269,17.67767 -20.20305,17.17259 -19.69798,12.12183 -25.75889,8.5863 -47.98224,-1.01016 c 0,0 -76.7716,-6.56599 -114.65232,-77.27667 -37.88072,-70.71067 6.56599,-119.70307 6.56599,-119.70307 z"
       id="path5319"
       inkscape:connector-curvature="0"
       sodipodi:nodetypes="csssscscccccccsc"
       transform="matrix(0.08185101,0,0,0.08185101,-0.79966307,967.86454)" />
  </g>
  <g
     inkscape:groupmode="layer"
     id="layer8"
     inkscape:label="blink"
     style="display:inline"
     transform="translate(0,-1028.3622)"
     sodipodi:insensitive="true">
    <path
       style="opacity:0.59322037;fill:#fbffff;fill-opacity:1;stroke:none"
       d="m 9.4901762,1041.2561 c -0.1663511,-1.4076 -0.045234,-2.2466 0.058468,-4.8527 -2.3014151,-0.5709 -3.3212565,-1.1 -4.8371924,-2.0734 -2.2537222,2.7417 -1.3494297,5.9692 -0.1907972,7.6276 1.5627613,0.048 3.1045964,0.1575 4.9695231,-0.7015 z"
       id="path5372"
       inkscape:connector-curvature="0"
       sodipodi:nodetypes="ccccc" />
  </g>
</svg>
