<?xml version="1.0" encoding="UTF-8" standalone="no"?>
<!-- Created with Inkscape (http://www.inkscape.org/) -->

<svg
   xmlns:dc="http://purl.org/dc/elements/1.1/"
   xmlns:cc="http://creativecommons.org/ns#"
   xmlns:rdf="http://www.w3.org/1999/02/22-rdf-syntax-ns#"
   xmlns:svg="http://www.w3.org/2000/svg"
   xmlns="http://www.w3.org/2000/svg"
   xmlns:xlink="http://www.w3.org/1999/xlink"
   xmlns:sodipodi="http://sodipodi.sourceforge.net/DTD/sodipodi-0.dtd"
   xmlns:inkscape="http://www.inkscape.org/namespaces/inkscape"
   width="16"
   height="16"
   id="svg2"
   version="1.1"
   inkscape:version="0.48.1 r9760"
   sodipodi:docname="cateye-extra_small.svg"
   style="enable-background:new"
   inkscape:export-filename="/home/imizus/Projects/cateye/CatEye/res/cateye.png"
   inkscape:export-xdpi="90"
   inkscape:export-ydpi="90">
  <defs
     id="defs4">
    <linearGradient
       id="linearGradient5337">
      <stop
         style="stop-color:#000000;stop-opacity:1;"
         offset="0"
         id="stop5339" />
      <stop
         style="stop-color:#000000;stop-opacity:0;"
         offset="1"
         id="stop5343" />
    </linearGradient>
    <linearGradient
       id="linearGradient5329">
      <stop
         id="stop5331"
         offset="0"
         style="stop-color:#89b300;stop-opacity:1;" />
      <stop
         style="stop-color:#7fa600;stop-opacity:1;"
         offset="0.42981702"
         id="stop5333" />
      <stop
         id="stop5335"
         offset="1"
         style="stop-color:#587300;stop-opacity:1;" />
    </linearGradient>
    <linearGradient
       id="linearGradient5212">
      <stop
         style="stop-color:#b6ea00;stop-opacity:1;"
         offset="0"
         id="stop5214" />
      <stop
         id="stop5220"
         offset="0.5"
         style="stop-color:#9bc800;stop-opacity:1;" />
      <stop
         style="stop-color:#709000;stop-opacity:1;"
         offset="1"
         id="stop5216" />
    </linearGradient>
    <linearGradient
       id="linearGradient5173">
      <stop
         style="stop-color:#e1e944;stop-opacity:1;"
         offset="0"
         id="stop5175" />
      <stop
         style="stop-color:#eeee00;stop-opacity:0;"
         offset="1"
         id="stop5177" />
    </linearGradient>
    <filter
       inkscape:collect="always"
       id="filter5181"
       color-interpolation-filters="sRGB">
      <feBlend
         inkscape:collect="always"
         mode="multiply"
         in2="BackgroundImage"
         id="feBlend5183" />
    </filter>
    <radialGradient
       inkscape:collect="always"
       xlink:href="#linearGradient5212"
       id="radialGradient5218"
       cx="340.47516"
       cy="396.34482"
       fx="340.47516"
       fy="396.34482"
       r="133.72549"
       gradientTransform="matrix(0.05443079,0,0,0.04461321,-10.423826,1026.9486)"
       gradientUnits="userSpaceOnUse" />
    <linearGradient
       inkscape:collect="always"
       xlink:href="#linearGradient5173"
       id="linearGradient5249"
       x1="343.05014"
       y1="393.01355"
       x2="364.09741"
       y2="396.17773"
       gradientUnits="userSpaceOnUse"
       spreadMethod="reflect" />
    <filter
       color-interpolation-filters="sRGB"
       inkscape:collect="always"
       id="filter5181-0">
      <feBlend
         inkscape:collect="always"
         mode="multiply"
         in2="BackgroundImage"
         id="feBlend5183-7" />
    </filter>
    <filter
       inkscape:collect="always"
       id="filter5368"
       color-interpolation-filters="sRGB">
      <feGaussianBlur
         inkscape:collect="always"
         stdDeviation="2.6497476"
         id="feGaussianBlur5370" />
    </filter>
    <linearGradient
       inkscape:collect="always"
       xlink:href="#linearGradient5337"
       id="linearGradient5390"
       x1="327.36096"
       y1="419.50162"
       x2="447.93066"
       y2="452.83667"
       gradientUnits="userSpaceOnUse"
       spreadMethod="reflect"
       gradientTransform="translate(-180,491.42857)" />
    <filter
       inkscape:collect="always"
       id="filter5396"
       x="-0.15747885"
       width="1.3149577"
       y="-0.044305496"
       height="1.088611"
       color-interpolation-filters="sRGB">
      <feGaussianBlur
         inkscape:collect="always"
         stdDeviation="2.3351069"
         id="feGaussianBlur5398" />
    </filter>
    <linearGradient
       inkscape:collect="always"
       xlink:href="#linearGradient5173-0"
       id="linearGradient5249-6"
       x1="343.05014"
       y1="393.01355"
       x2="364.09741"
       y2="396.17773"
       gradientUnits="userSpaceOnUse"
       spreadMethod="reflect" />
    <linearGradient
       id="linearGradient5173-0">
      <stop
         style="stop-color:#e1e944;stop-opacity:1;"
         offset="0"
         id="stop5175-6" />
      <stop
         style="stop-color:#eeee00;stop-opacity:0;"
         offset="1"
         id="stop5177-9" />
    </linearGradient>
  </defs>
  <sodipodi:namedview
     id="base"
     pagecolor="#ffffff"
     bordercolor="#666666"
     borderopacity="1.0"
     inkscape:pageopacity="0.0"
     inkscape:pageshadow="2"
     inkscape:zoom="0.8"
     inkscape:cx="-365.74053"
     inkscape:cy="50.484312"
     inkscape:document-units="px"
     inkscape:current-layer="layer3"
     showgrid="false"
     inkscape:window-width="1280"
     inkscape:window-height="949"
     inkscape:window-x="0"
     inkscape:window-y="24"
     inkscape:window-maximized="1" />
  <metadata
     id="metadata7">
    <rdf:RDF>
      <cc:Work
         rdf:about="">
        <dc:format>image/svg+xml</dc:format>
        <dc:type
           rdf:resource="http://purl.org/dc/dcmitype/StillImage" />
        <dc:title></dc:title>
      </cc:Work>
    </rdf:RDF>
  </metadata>
  <g
     inkscape:groupmode="layer"
     id="layer4"
     inkscape:label="eye-back"
     style="opacity:0.91999996;display:inline"
     transform="translate(0,-1036.3622)">
    <path
       id="path5142-0"
       style="fill:url(#radialGradient5218);fill-opacity:1;stroke:none"
       d="m 3.4045018,1038.6648 c -0.7800835,0.1834 -1.2444995,0.3667 -1.5120455,0.5499 -0.8776615,1.6845 -1.37776393,3.5083 -0.8415357,5.6431 0.432983,1.1364 1.4525022,3.5282 4.4126718,4.9611 1.1859398,0.5742 2.388365,0.8005 4.4987431,0.776 1.5570405,-0.2056 2.7915865,-0.6358 4.3724775,-2.6214 0.494832,-0.6216 1.184697,-2.3822 1.030481,-3.4178 -1.101236,-2.731 -7.6340908,-5.3264 -11.1772339,-5.7732 z"
       inkscape:connector-curvature="0"
       sodipodi:nodetypes="cccscsccc" />
    <path
       style="opacity:0.93999999;fill:#000000;stroke:none;display:inline;filter:url(#filter5181)"
       d="m 29.90637,888.44761 -9.59645,-30.05203 -4.54569,-41.66879 0,-26.76905 4.04061,-5.55584 18.68783,1.76777 28.78934,-2.27284 -5.80837,2.52538 -15.90991,6.56599 C 30.2544,820.9876 23.00684,853.29828 29.90637,888.44761 z"
       id="path5185"
       inkscape:connector-curvature="0"
       sodipodi:nodetypes="cccccccccc"
       transform="matrix(0.05443079,0,0,0.05729721,-0.62628218,993.76381)" />
  </g>
  <g
     inkscape:groupmode="layer"
     id="layer3"
     inkscape:label="lines"
     style="opacity:0.93999999;display:inline;filter:url(#filter5181)"
     transform="translate(0,-1036.3622)">
    <path
       style="font-size:medium;font-style:normal;font-variant:normal;font-weight:normal;font-stretch:normal;text-indent:0;text-align:start;text-decoration:none;line-height:normal;letter-spacing:normal;word-spacing:normal;text-transform:none;direction:ltr;block-progression:tb;writing-mode:lr-tb;text-anchor:start;baseline-shift:baseline;color:#000000;fill:#000000;fill-opacity:1;stroke:none;stroke-width:4;marker:none;visibility:visible;display:inline;overflow:visible;enable-background:accumulate;font-family:Sans;-inkscape-font-specification:Sans"
       d="m 2.0476301,1038.3298 c -0.9163275,0.115 -1.60570802,0.075 -1.60570802,0.075 l -0.0765443,-0.015 c -0.11157953,0.149 -0.23323337,0.3649 -0.24493767,0.702 l 0.0300671,0.2105 c 0.21567507,0.9485 -0.21886785,3.2002 0.42919161,5.6266 0.77060868,2.8853 3.14043928,4.5981 5.05696018,5.223 1.1482758,0.3746 2.3334483,0.6731 4.0670019,0.6644 1.9239391,-0.011 5.1671451,-0.8447 5.1671451,-0.8447 0,0 -3.258626,0.3629 -5.1705472,0.2717 -1.9363839,-0.093 -2.9348133,-0.3786 -4.1361885,-0.8738 -2.2466266,-0.9258 -3.9301771,-2.8545 -4.4020902,-4.643 -0.55803264,-2.1147 -0.82610572,-5.5019 -0.8238188,-5.5756 l 0.14628354,-0.3975 c 0.10496118,0.016 0.71169806,0.252 1.58019386,0.1756 0.8512277,-0.074 1.1795246,-0.1107 2.1108945,0.011 1.7589588,0.2221 4.1202704,0.81 6.2476348,1.7766 2.127364,0.9668 4.017431,2.2766 4.849444,3.8282 0.868538,1.6197 1.101851,3.0875 1.101851,3.0875 0,0 -0.02989,-2.0117 -0.913044,-3.6586 -0.875114,-1.6321 -2.801865,-3.0355 -4.951502,-4.0124 -2.1496362,-0.9769 -4.5235748,-1.4749 -6.3088698,-1.6898 -0.7118193,-0.086 -1.5560502,-0.013 -2.1534191,0.062 z"
       id="path3838"
       inkscape:connector-curvature="0"
       sodipodi:nodetypes="cccccssscsssccsssscssssc" />
    <path
       style="fill:none;stroke:#000000;stroke-width:0.34968963;stroke-linecap:butt;stroke-linejoin:miter;stroke-miterlimit:4;stroke-opacity:1;stroke-dasharray:none"
       d="m 10.030002,1050.5879 c 1.561539,-0.1048 3.304578,-1.2131 4.304811,-2.6144 0.471134,-0.6601 1.420634,-2.8605 0.807466,-4.028"
       id="path5140"
       inkscape:connector-curvature="0"
       sodipodi:nodetypes="csc" />
    <path
       style="fill:none;stroke:#000000;stroke-width:0.0558456px;stroke-linecap:butt;stroke-linejoin:miter;stroke-opacity:1"
       d="m 3.5694523,1038.8239 c -1.1512224,0.011 -1.4231962,0.1932 -1.6907407,0.3763 -0.877663,1.6846 -1.36401923,3.5228 -0.7835133,5.7446"
       id="path5142"
       inkscape:connector-curvature="0"
       sodipodi:nodetypes="ccc" />
  </g>
  <g
     inkscape:groupmode="layer"
     id="layer5"
     inkscape:label="Center"
     style="display:inline"
     transform="translate(0,-1036.3622)">
    <path
       style="opacity:0.77542372;fill:url(#linearGradient5249);fill-opacity:1;stroke:none;display:inline;filter:url(#filter5396)"
       d="m 339.29888,453.09501 c 32.73358,-45.53885 24.56025,-88.54637 7.21152,-126.49123 -28.09178,36.05156 -23.88187,82.84238 -7.21152,126.49123 z"
       id="path5144-3"
       inkscape:connector-curvature="0"
       sodipodi:nodetypes="ccc"
       transform="matrix(0.1778375,0,0,0.06727215,-53.117395,1017.6498)" />
  </g>
  <g
     inkscape:groupmode="layer"
     id="layer10"
     inkscape:label="center-lines"
     style="display:inline"
     transform="translate(0,-32)">
    <path
       style="opacity:0.3;fill:#000000;fill-opacity:1;stroke:none;display:inline;enable-background:new"
       d="m 7.8526253,42.422733 c 0.5144568,-0.396225 1.3600294,0.321651 3.3775887,0.821301 -0.936456,-0.448822 -2.6373477,-1.758802 -2.4737396,-1.966922 0.1829652,-0.271484 2.3689016,0.633503 4.0316016,0.920823 -0.764094,-0.320885 -4.036783,-1.370053 -3.815941,-1.789212 0.078965,-0.149877 3.379103,0.633141 4.424456,0.767714 -2.587402,-0.695175 -4.3302758,-1.387301 -4.3145209,-1.565882 0.042362,-0.480193 4.4559909,0.621316 4.4760459,0.614833 0.185803,-0.06008 -4.4304769,-1.394922 -4.4314253,-1.539906 -0.00127,-0.179897 3.5865243,0.01496 4.0153873,0.07462 C 12.605613,38.657939 9.1279651,38.280483 9.0590379,37.827491 9.0382169,37.690588 10.542997,37.63061 12.122423,37.476013 10.711895,37.246062 8.8946507,36.888449 8.8373025,36.754246 8.7649319,36.584877 9.1909742,36.268518 10.106865,36.251333 8.959419,36.117961 8.6451537,35.865916 8.5322822,35.605242 8.3074909,35.086081 8.4091125,35.919159 8.2873336,35.69872 7.7490402,37.736908 7.8809522,41.094604 7.8526253,42.422736 z"
       id="path5144-3-3"
       inkscape:connector-curvature="0"
       sodipodi:nodetypes="ccccscssscscscscc" />
    <path
       style="opacity:0.5;fill:#ffffff;fill-opacity:1;stroke:none;display:inline;enable-background:new"
       d="m 8.3934994,35.643772 c -0.4315106,0.410603 -1.6852631,0.383931 -3.3950685,0.0475 0.7954622,0.361781 2.447235,0.911862 2.3107057,1.120283 -0.1523529,0.269805 -2.2580336,-0.502232 -3.6660493,-0.661517 0.6486665,0.252222 3.4241821,1.024217 3.241074,1.436592 -0.065469,0.14745 -2.8619216,-0.370378 -3.7467572,-0.426849 2.193188,0.483029 3.5106843,1.018962 3.4988903,1.189323 -0.031713,0.458095 -3.6104172,-0.284274 -3.6273143,-0.276763 -0.1565567,0.06959 3.5293912,1.122271 3.5314299,1.259648 0.00265,0.17046 -3.0763422,-0.07764 -3.4393891,-0.105047 0.454372,0.06036 3.6550062,0.509842 3.717141,0.934581 0.018778,0.128364 -1.6971628,0.167615 -3.0326856,0.235145 0.6951209,0.100019 3.1716928,0.730209 3.221317,0.853529 0.062622,0.155637 -1.4879858,0.366086 -2.262085,0.444671 0.8482333,0.201364 2.454652,0.547501 2.5522914,0.786936 0.1944596,0.476864 0.1907093,-5.02e-4 0.2955371,0.200178 0.4376447,-1.968768 0.7883568,-5.777248 0.8009626,-7.038211 z"
       id="path5144-3-3-3"
       inkscape:connector-curvature="0"
       sodipodi:nodetypes="ccccscssscscscscc" />
    <path
       style="opacity:0.3;fill:#000000;fill-opacity:1;stroke:none;display:inline;enable-background:new"
       d="m 8.5193969,36.157467 c -0.4315116,0.410603 -1.6852641,0.383931 -3.3950697,0.04751 0.7954623,0.361781 2.4472351,0.911862 2.3107059,1.120283 -0.1523509,0.269806 -2.2580338,-0.50223 -3.6660493,-0.661517 0.6486665,0.252221 3.4241842,1.024219 3.2410729,1.436591 -0.065459,0.147451 -2.8619207,-0.370377 -3.7467563,-0.426847 2.1931881,0.483029 3.5106855,1.018963 3.4988905,1.189324 -0.031713,0.458092 -3.6104164,-0.284275 -3.6273145,-0.276765 -0.1565557,0.06959 3.6522869,0.881884 3.6543256,1.019262 0.00265,0.170459 -3.199237,0.162742 -3.5622846,0.135345 0.4543728,0.06036 3.4829511,0.444282 3.5450859,0.869021 0.018778,0.128364 -1.254737,0.429856 -2.5902608,0.497387 0.6951218,0.100019 2.9996378,0.752061 3.0492631,0.875382 0.062632,0.155636 -1.4879858,0.234965 -2.2620847,0.31355 0.9711286,0.04839 2.5283899,0.503794 2.6260303,0.74323 0.1944586,0.476865 0.018662,-0.04421 0.1234831,0.15647 0.4376426,-1.968767 0.7883547,-5.777248 0.8009626,-7.03821 z"
       id="path5144-3-3-3-3"
       inkscape:connector-curvature="0"
       sodipodi:nodetypes="ccccscssscscscscc" />
    <path
       style="opacity:0.5;fill:#ffffff;fill-opacity:1;stroke:none;display:inline;enable-background:new"
       d="M 7.6159617,43.054305 C 8.1304195,42.669489 8.6261481,42.74315 9.9800731,43.556221 9.6335177,42.879934 8.2587252,42.002099 8.4223323,41.799971 8.6052975,41.536303 10.41884,42.473428 12.081543,42.752474 11.317448,42.440832 8.6425804,41.278595 8.8634214,40.871506 c 0.078965,-0.145561 3.8136066,0.954869 4.8589596,1.085566 -2.587402,-0.675155 -4.6778786,-1.734115 -4.6621216,-1.907552 0.042362,-0.466365 4.4594836,0.640532 4.4795386,0.634235 0.185803,-0.05834 -4.3944817,-1.423099 -4.3954291,-1.563908 -0.00116,-0.174716 3.3047371,0.185214 4.0285491,0.199459 C 12.636452,39.220081 9.1948018,38.731651 9.1258746,38.291704 9.105043,38.158743 11.163737,38.186181 12.767742,38.074075 11.947113,37.914419 9.0622717,37.483506 9.0049246,37.353168 8.932554,37.188675 10.057505,36.787051 10.973396,36.770359 9.8259513,36.640828 8.7797607,36.768666 8.6495126,36.329968 8.4937798,35.80556 8.6365988,36.150786 8.5148083,35.936695 7.9765137,37.916189 7.6442918,41.764419 7.6159617,43.054305 z"
       id="path5144-3-3-5"
       inkscape:connector-curvature="0"
       sodipodi:nodetypes="ccccscssscscscscc" />
  </g>
  <g
     inkscape:groupmode="layer"
     id="layer6"
     inkscape:label="Center-black"
     style="display:inline"
     transform="translate(0,-1036.3622)">
    <path
       style="opacity:0.93999999;fill:#000000;stroke:#000000;stroke-width:1px;stroke-linecap:butt;stroke-linejoin:miter;stroke-opacity:1;display:inline;filter:url(#filter5181-0)"
       d="m 153.51878,930.86029 c 25.52805,-34.40715 28.91728,-73.59622 10.71429,-121.42857 -23.40572,33.08256 -28.86488,73.65542 -10.71429,121.42857 z"
       id="path5144"
       inkscape:connector-curvature="0"
       sodipodi:nodetypes="ccc"
       transform="matrix(0.06960383,0,0,0.06188507,-3.1087666,989.8036)" />
  </g>
  <g
     inkscape:groupmode="layer"
     id="layer7"
     inkscape:label="shadows"
     style="display:inline"
     transform="translate(0,-1036.3622)">
    <path
       style="opacity:0.26728109;fill:url(#linearGradient5390);fill-opacity:1;stroke:none;filter:url(#filter5368)"
       d="m 47.28432,793.75249 c 0,0 -4.72156,39.98661 -1.51523,59.599 3.09354,18.92248 3.8626,31.98674 19.69798,54.04316 14.14213,19.69797 47.18445,42.23355 86.87311,46.46701 37.88072,4.04061 67.13099,-3.68622 96.46957,-28.28426 25.81442,-21.64333 37.88073,-51.01271 37.88073,-51.01271 0,0 11.61675,4.54569 9.09137,14.64721 -2.52538,10.10153 -4.54569,22.72844 -4.54569,22.72844 l -9.59645,24.24366 -12.6269,17.67767 -20.20305,17.17259 -19.69798,12.12183 -25.75889,8.5863 -47.98224,-1.01016 c 0,0 -76.7716,-6.56599 -114.65232,-77.27667 -37.88072,-70.71067 6.56599,-119.70307 6.56599,-119.70307 z"
       id="path5319"
       inkscape:connector-curvature="0"
       sodipodi:nodetypes="csssscscccccccsc"
       transform="matrix(0.05443079,0,0,0.05729721,-0.62628218,993.76381)" />
  </g>
  <g
     inkscape:groupmode="layer"
     id="layer8"
     inkscape:label="blink"
     style="display:inline"
     transform="translate(0,-1036.3622)">
    <path
       style="opacity:0.55;fill:#fbffff;fill-opacity:1;stroke:none"
       d="m 6.213616,1045.0976 c -0.1186721,-1.0656 -0.032274,-1.7006 0.041705,-3.6733 -1.6417987,-0.4322 -2.3693388,-0.8327 -3.4507866,-1.5694 -1.6077752,2.0753 -0.9626654,4.5184 -0.1361126,5.7736 1.1148527,0.036 2.2147768,0.1193 3.5451906,-0.5309 z"
       id="path5372"
       inkscape:connector-curvature="0"
       sodipodi:nodetypes="ccccc" />
  </g>
</svg>
