<?xml version="1.0" encoding="UTF-8" standalone="no"?>
<!-- Created with Inkscape (http://www.inkscape.org/) -->

<svg
   xmlns:dc="http://purl.org/dc/elements/1.1/"
   xmlns:cc="http://creativecommons.org/ns#"
   xmlns:rdf="http://www.w3.org/1999/02/22-rdf-syntax-ns#"
   xmlns:svg="http://www.w3.org/2000/svg"
   xmlns="http://www.w3.org/2000/svg"
   xmlns:xlink="http://www.w3.org/1999/xlink"
   xmlns:sodipodi="http://sodipodi.sourceforge.net/DTD/sodipodi-0.dtd"
   xmlns:inkscape="http://www.inkscape.org/namespaces/inkscape"
   width="24"
   height="24"
   id="svg2"
   version="1.1"
   inkscape:version="0.48.1 r9760"
   sodipodi:docname="cateye-small.svg"
   style="enable-background:new"
   inkscape:export-filename="/home/imizus/Projects/cateye/CatEye/res/cateye.png"
   inkscape:export-xdpi="90"
   inkscape:export-ydpi="90">
  <defs
     id="defs4">
    <linearGradient
       id="linearGradient5337">
      <stop
         style="stop-color:#000000;stop-opacity:1;"
         offset="0"
         id="stop5339" />
      <stop
         style="stop-color:#000000;stop-opacity:0;"
         offset="1"
         id="stop5343" />
    </linearGradient>
    <linearGradient
       id="linearGradient5329">
      <stop
         id="stop5331"
         offset="0"
         style="stop-color:#89b300;stop-opacity:1;" />
      <stop
         style="stop-color:#7fa600;stop-opacity:1;"
         offset="0.42981702"
         id="stop5333" />
      <stop
         id="stop5335"
         offset="1"
         style="stop-color:#587300;stop-opacity:1;" />
    </linearGradient>
    <linearGradient
       id="linearGradient5212">
      <stop
         style="stop-color:#c7ea00;stop-opacity:1;"
         offset="0"
         id="stop5214" />
      <stop
         id="stop5220"
         offset="0.5"
         style="stop-color:#c8c800;stop-opacity:1;" />
      <stop
         style="stop-color:#c3a600;stop-opacity:1;"
         offset="1"
         id="stop5216" />
    </linearGradient>
    <linearGradient
       id="linearGradient5173">
      <stop
         style="stop-color:#b5fa7c;stop-opacity:1;"
         offset="0"
         id="stop5175" />
      <stop
         style="stop-color:#b5ff1a;stop-opacity:0;"
         offset="1"
         id="stop5177" />
    </linearGradient>
    <filter
       inkscape:collect="always"
       id="filter5181"
       color-interpolation-filters="sRGB">
      <feBlend
         inkscape:collect="always"
         mode="multiply"
         in2="BackgroundImage"
         id="feBlend5183" />
    </filter>
    <radialGradient
       inkscape:collect="always"
       xlink:href="#linearGradient5212"
       id="radialGradient5218"
       cx="340.47516"
       cy="396.34482"
       fx="340.47516"
       fy="396.34482"
       r="133.72549"
       gradientTransform="matrix(0.07974076,0,0,0.06208839,-15.277722,1015.5292)"
       gradientUnits="userSpaceOnUse" />
    <linearGradient
       inkscape:collect="always"
       xlink:href="#linearGradient5173"
       id="linearGradient5249"
       x1="343.05014"
       y1="393.01355"
       x2="357.10901"
       y2="393.59125"
       gradientUnits="userSpaceOnUse"
       spreadMethod="reflect" />
    <filter
       color-interpolation-filters="sRGB"
       inkscape:collect="always"
       id="filter5181-0">
      <feBlend
         inkscape:collect="always"
         mode="multiply"
         in2="BackgroundImage"
         id="feBlend5183-7" />
    </filter>
    <filter
       inkscape:collect="always"
       id="filter5368"
       color-interpolation-filters="sRGB">
      <feGaussianBlur
         inkscape:collect="always"
         stdDeviation="2.6497476"
         id="feGaussianBlur5370" />
    </filter>
    <linearGradient
       inkscape:collect="always"
       xlink:href="#linearGradient5337"
       id="linearGradient5390"
       x1="327.36096"
       y1="419.50162"
       x2="447.93066"
       y2="452.83667"
       gradientUnits="userSpaceOnUse"
       spreadMethod="reflect"
       gradientTransform="translate(-180,491.42857)" />
    <filter
       inkscape:collect="always"
       id="filter5396"
       x="-0.15747885"
       width="1.3149577"
       y="-0.044305496"
       height="1.088611"
       color-interpolation-filters="sRGB">
      <feGaussianBlur
         inkscape:collect="always"
         stdDeviation="2.3351069"
         id="feGaussianBlur5398" />
    </filter>
    <linearGradient
       inkscape:collect="always"
       xlink:href="#linearGradient5173-0"
       id="linearGradient5249-6"
       x1="343.05014"
       y1="393.01355"
       x2="364.09741"
       y2="396.17773"
       gradientUnits="userSpaceOnUse"
       spreadMethod="reflect" />
    <linearGradient
       id="linearGradient5173-0">
      <stop
         style="stop-color:#e1e944;stop-opacity:1;"
         offset="0"
         id="stop5175-6" />
      <stop
         style="stop-color:#eeee00;stop-opacity:0;"
         offset="1"
         id="stop5177-9" />
    </linearGradient>
  </defs>
  <sodipodi:namedview
     id="base"
     pagecolor="#ffffff"
     bordercolor="#666666"
     borderopacity="1.0"
     inkscape:pageopacity="0.0"
     inkscape:pageshadow="2"
     inkscape:zoom="1.1313709"
     inkscape:cx="-139.2591"
     inkscape:cy="99.206372"
     inkscape:document-units="px"
     inkscape:current-layer="layer6"
     showgrid="false"
     inkscape:window-width="1280"
     inkscape:window-height="949"
     inkscape:window-x="0"
     inkscape:window-y="24"
     inkscape:window-maximized="1" />
  <metadata
     id="metadata7">
    <rdf:RDF>
      <cc:Work
         rdf:about="">
        <dc:format>image/svg+xml</dc:format>
        <dc:type
           rdf:resource="http://purl.org/dc/dcmitype/StillImage" />
        <dc:title></dc:title>
      </cc:Work>
    </rdf:RDF>
  </metadata>
  <g
     inkscape:groupmode="layer"
     id="layer4"
     inkscape:label="eye-back"
     style="opacity:0.91999996;display:inline"
     transform="translate(0,-1028.3622)">
    <path
       id="path5142-0"
       style="fill:url(#radialGradient5218);fill-opacity:1;stroke:none"
       d="m 4.9806877,1031.8348 c -1.1428173,0.255 -1.8231835,0.5101 -2.2151361,0.7652 -1.2857682,2.3444 -2.01841553,4.8824 -1.2328458,7.8535 0.6343181,1.5814 2.1279063,4.9103 6.4645351,6.9045 1.7373935,0.7989 3.4989401,1.114 6.5906301,1.0799 2.281055,-0.2861 4.089655,-0.8849 6.405651,-3.6484 0.724924,-0.8649 1.735573,-3.3152 1.509646,-4.7565 -1.613304,-3.8004 -11.183892,-7.4127 -16.3745728,-8.0346 z"
       inkscape:connector-curvature="0"
       sodipodi:nodetypes="cccscsccc" />
    <path
       style="opacity:0.93999999;fill:#000000;stroke:none;display:inline;filter:url(#filter5181)"
       d="m 29.90637,888.44761 -9.59645,-30.05203 -4.54569,-41.66879 0,-26.76905 4.04061,-5.55584 18.68783,1.76777 28.78934,-2.27284 -5.80837,2.52538 -15.90991,6.56599 C 30.2544,820.9876 23.00684,853.29828 29.90637,888.44761 z"
       id="path5185"
       inkscape:connector-curvature="0"
       sodipodi:nodetypes="cccccccccc"
       transform="matrix(0.07974076,0,0,0.07974076,-0.9243849,969.34577)" />
  </g>
  <g
     inkscape:groupmode="layer"
     id="layer3"
     inkscape:label="lines"
     style="opacity:0.93999999;display:inline;filter:url(#filter5181)"
     transform="translate(0,-1028.3622)">
    <path
       style="font-size:medium;font-style:normal;font-variant:normal;font-weight:normal;font-stretch:normal;text-indent:0;text-align:start;text-decoration:none;line-height:normal;letter-spacing:normal;word-spacing:normal;text-transform:none;direction:ltr;block-progression:tb;writing-mode:lr-tb;text-anchor:start;baseline-shift:baseline;color:#000000;fill:#000000;fill-opacity:1;stroke:#000000;stroke-width:0.30000001;stroke-miterlimit:4;stroke-opacity:1;stroke-dasharray:none;marker:none;visibility:visible;display:inline;overflow:visible;enable-background:accumulate;font-family:Sans;-inkscape-font-specification:Sans"
       d="m 2.9928793,1031.3685 c -1.3424129,0.16 -2.35235113,0.1041 -2.35235113,0.1041 l -0.1121366,-0.02 c -0.16346419,0.2073 -0.34168597,0.5078 -0.35883246,0.9769 l 0.0440568,0.2928 c 0.31596182,1.3203 -0.32064103,4.4539 0.62876169,7.8308 1.1289369,4.0153 4.6007226,6.399 7.4084136,7.2688 1.6822167,0.5212 3.4184858,0.9369 5.9581318,0.9246 2.818557,-0.014 7.569832,-1.1758 7.569832,-1.1758 0,0 -4.773865,0.5054 -7.574816,0.3782 -2.836788,-0.1286 -4.2994816,-0.5269 -6.0594888,-1.216 -3.2912935,-1.2883 -5.7576851,-3.9725 -6.4490344,-6.4614 -0.81751368,-2.9433 -1.2102393,-7.6573 -1.20688908,-7.7598 l 0.21430449,-0.5532 c 0.15376683,0.023 1.04263299,0.3506 2.31497379,0.2446 1.247043,-0.1041 1.7279963,-0.1542 3.0924465,0.011 2.5768625,0.3088 6.0361705,1.127 9.1527445,2.4724 3.116573,1.3454 5.885508,3.1683 7.104404,5.3277 1.2724,2.2541 1.614202,4.2969 1.614202,4.2969 0,0 -0.04379,-2.7998 -1.337603,-5.0919 -1.282034,-2.2713 -4.104712,-4.2245 -7.253917,-5.5839 -3.149204,-1.3595 -6.6270072,-2.0528 -9.2424531,-2.352 -1.0428091,-0.1192 -2.2796021,-0.018 -3.154744,0.086 z"
       id="path3838"
       inkscape:connector-curvature="0"
       sodipodi:nodetypes="cccccssscsssccsssscssssc" />
    <path
       style="fill:none;stroke:#000000;stroke-width:0.4;stroke-linecap:butt;stroke-linejoin:miter;stroke-miterlimit:4;stroke-opacity:1;stroke-dasharray:none"
       d="m 14.687001,1048.4282 c 2.287646,-0.1455 4.841186,-1.6884 6.306521,-3.6387 0.690207,-0.9185 2.081218,-3.9809 1.182933,-5.6056"
       id="path5140"
       inkscape:connector-curvature="0"
       sodipodi:nodetypes="csc" />
  </g>
  <g
     inkscape:groupmode="layer"
     id="layer5"
     inkscape:label="Center"
     style="display:inline"
     transform="translate(0,-1028.3622)">
    <path
       style="opacity:0.51152074;fill:url(#linearGradient5249);fill-opacity:1;stroke:none;display:inline;filter:url(#filter5396)"
       d="m 339.29888,453.09501 c 32.73358,-45.53885 22.60565,-82.43152 5.25692,-120.37638 -28.09178,36.05156 -21.92727,76.72753 -5.25692,120.37638 z"
       id="path5144-3"
       inkscape:connector-curvature="0"
       sodipodi:nodetypes="ccc"
       transform="matrix(0.14505717,0,0,0.08709555,-37.413139,1005.043)" />
  </g>
  <g
     inkscape:groupmode="layer"
     id="layer10"
     inkscape:label="center-lines"
     style="display:inline"
     transform="translate(0,-24)" />
  <g
     inkscape:groupmode="layer"
     id="layer6"
     inkscape:label="Center-black"
     style="display:inline"
     transform="translate(0,-1028.3622)">
    <path
       style="opacity:0.93999999000000001;fill:#000000;stroke:#000000;stroke-width:8.77844656;stroke-linecap:butt;stroke-linejoin:miter;stroke-miterlimit:4;stroke-opacity:1;stroke-dasharray:none;display:inline;filter:url(#filter5181-0)"
       d="m 153.51878,930.86029 c 25.52805,-34.40715 28.91728,-73.59622 10.71429,-121.42857 -23.40572,33.08256 -28.86488,73.65542 -10.71429,121.42857 z"
       id="path5144"
       inkscape:connector-curvature="0"
       sodipodi:nodetypes="ccc"
       transform="matrix(0.07974076,0,0,0.07974076,-0.75543185,969.57104)" />
  </g>
  <g
     inkscape:groupmode="layer"
     id="layer7"
     inkscape:label="shadows"
     style="display:inline"
     transform="translate(0,-1028.3622)"
     sodipodi:insensitive="true">
    <path
       style="opacity:0.26728109;fill:url(#linearGradient5390);fill-opacity:1;stroke:none;filter:url(#filter5368)"
       d="m 47.28432,793.75249 c 0,0 -4.72156,39.98661 -1.51523,59.599 3.09354,18.92248 3.8626,31.98674 19.69798,54.04316 14.14213,19.69797 47.18445,42.23355 86.87311,46.46701 37.88072,4.04061 67.13099,-3.68622 96.46957,-28.28426 25.81442,-21.64333 37.88073,-51.01271 37.88073,-51.01271 0,0 11.61675,4.54569 9.09137,14.64721 -2.52538,10.10153 -4.54569,22.72844 -4.54569,22.72844 l -9.59645,24.24366 -12.6269,17.67767 -20.20305,17.17259 -19.69798,12.12183 -25.75889,8.5863 -47.98224,-1.01016 c 0,0 -76.7716,-6.56599 -114.65232,-77.27667 -37.88072,-70.71067 6.56599,-119.70307 6.56599,-119.70307 z"
       id="path5319"
       inkscape:connector-curvature="0"
       sodipodi:nodetypes="csssscscccccccsc"
       transform="matrix(0.07974076,0,0,0.07974076,-0.9243849,969.34577)" />
  </g>
  <g
     inkscape:groupmode="layer"
     id="layer8"
     inkscape:label="blink"
     style="display:inline"
     transform="translate(0,-1028.3622)">
    <path
       style="opacity:0.67372881;fill:#fbffff;fill-opacity:1;stroke:none"
       d="m 9.1001669,1040.8452 c -0.1620621,-1.3713 -0.044068,-2.1885 0.056959,-4.7275 -2.2420819,-0.5562 -3.23563,-1.0716 -4.7124827,-2.02 -2.1956173,2.6711 -1.3146388,5.8154 -0.185878,7.431 1.5224711,0.046 3.024555,0.1535 4.8414014,-0.6835 z"
       id="path5372"
       inkscape:connector-curvature="0"
       sodipodi:nodetypes="ccccc" />
  </g>
</svg>
