<?xml version="1.0" encoding="UTF-8" standalone="no"?>
<!-- Created with Inkscape (http://www.inkscape.org/) -->

<svg
   xmlns:dc="http://purl.org/dc/elements/1.1/"
   xmlns:cc="http://creativecommons.org/ns#"
   xmlns:rdf="http://www.w3.org/1999/02/22-rdf-syntax-ns#"
   xmlns:svg="http://www.w3.org/2000/svg"
   xmlns="http://www.w3.org/2000/svg"
   xmlns:xlink="http://www.w3.org/1999/xlink"
   xmlns:sodipodi="http://sodipodi.sourceforge.net/DTD/sodipodi-0.dtd"
   xmlns:inkscape="http://www.inkscape.org/namespaces/inkscape"
   width="48"
   height="48"
   id="svg2"
   version="1.1"
   inkscape:version="0.48.1 r9760"
   sodipodi:docname="cateye.svg"
   style="enable-background:new"
   inkscape:export-filename="/home/imizus/Projects/cateye/CatEye/res/cateye.png"
   inkscape:export-xdpi="90"
   inkscape:export-ydpi="90">
  <defs
     id="defs4">
    <linearGradient
       id="linearGradient5337">
      <stop
         style="stop-color:#000000;stop-opacity:1;"
         offset="0"
         id="stop5339" />
      <stop
         style="stop-color:#000000;stop-opacity:0;"
         offset="1"
         id="stop5343" />
    </linearGradient>
    <linearGradient
       id="linearGradient5329">
      <stop
         id="stop5331"
         offset="0"
         style="stop-color:#89b300;stop-opacity:1;" />
      <stop
         style="stop-color:#7fa600;stop-opacity:1;"
         offset="0.42981702"
         id="stop5333" />
      <stop
         id="stop5335"
         offset="1"
         style="stop-color:#587300;stop-opacity:1;" />
    </linearGradient>
    <linearGradient
       id="linearGradient5212">
      <stop
         style="stop-color:#b6ea00;stop-opacity:1;"
         offset="0"
         id="stop5214" />
      <stop
         id="stop5220"
         offset="0.5"
         style="stop-color:#9bc800;stop-opacity:1;" />
      <stop
         style="stop-color:#709000;stop-opacity:1;"
         offset="1"
         id="stop5216" />
    </linearGradient>
    <linearGradient
       id="linearGradient5173">
      <stop
         style="stop-color:#e1e944;stop-opacity:1;"
         offset="0"
         id="stop5175" />
      <stop
         style="stop-color:#eeee00;stop-opacity:0;"
         offset="1"
         id="stop5177" />
    </linearGradient>
    <filter
       inkscape:collect="always"
       id="filter5181"
       color-interpolation-filters="sRGB">
      <feBlend
         inkscape:collect="always"
         mode="multiply"
         in2="BackgroundImage"
         id="feBlend5183" />
    </filter>
    <radialGradient
       inkscape:collect="always"
       xlink:href="#linearGradient5212"
       id="radialGradient5218"
       cx="340.47516"
       cy="396.34482"
       fx="340.47516"
       fy="396.34482"
       r="133.72549"
       gradientTransform="matrix(0.15643773,0,0,0.1218068,-29.399417,980.89815)"
       gradientUnits="userSpaceOnUse" />
    <linearGradient
       inkscape:collect="always"
       xlink:href="#linearGradient5173"
       id="linearGradient5249"
       x1="343.05014"
       y1="393.01355"
       x2="364.09741"
       y2="396.17773"
       gradientUnits="userSpaceOnUse"
       spreadMethod="reflect" />
    <filter
       color-interpolation-filters="sRGB"
       inkscape:collect="always"
       id="filter5181-0">
      <feBlend
         inkscape:collect="always"
         mode="multiply"
         in2="BackgroundImage"
         id="feBlend5183-7" />
    </filter>
    <filter
       inkscape:collect="always"
       id="filter5368"
       color-interpolation-filters="sRGB">
      <feGaussianBlur
         inkscape:collect="always"
         stdDeviation="2.6497476"
         id="feGaussianBlur5370" />
    </filter>
    <linearGradient
       inkscape:collect="always"
       xlink:href="#linearGradient5337"
       id="linearGradient5390"
       x1="327.36096"
       y1="419.50162"
       x2="447.93066"
       y2="452.83667"
       gradientUnits="userSpaceOnUse"
       spreadMethod="reflect"
       gradientTransform="translate(-180,491.42857)" />
    <filter
       inkscape:collect="always"
       id="filter5396"
       x="-0.15747885"
       width="1.3149577"
       y="-0.044305496"
       height="1.088611"
       color-interpolation-filters="sRGB">
      <feGaussianBlur
         inkscape:collect="always"
         stdDeviation="2.3351069"
         id="feGaussianBlur5398" />
    </filter>
    <linearGradient
       inkscape:collect="always"
       xlink:href="#linearGradient5173-0"
       id="linearGradient5249-6"
       x1="343.05014"
       y1="393.01355"
       x2="364.09741"
       y2="396.17773"
       gradientUnits="userSpaceOnUse"
       spreadMethod="reflect" />
    <linearGradient
       id="linearGradient5173-0">
      <stop
         style="stop-color:#e1e944;stop-opacity:1;"
         offset="0"
         id="stop5175-6" />
      <stop
         style="stop-color:#eeee00;stop-opacity:0;"
         offset="1"
         id="stop5177-9" />
    </linearGradient>
  </defs>
  <sodipodi:namedview
     id="base"
     pagecolor="#ffffff"
     bordercolor="#666666"
     borderopacity="1.0"
     inkscape:pageopacity="0.0"
     inkscape:pageshadow="2"
     inkscape:zoom="2.2627417"
     inkscape:cx="-74.63619"
     inkscape:cy="-17.279737"
     inkscape:document-units="px"
     inkscape:current-layer="layer10"
     showgrid="false"
     inkscape:window-width="1280"
     inkscape:window-height="949"
     inkscape:window-x="0"
     inkscape:window-y="24"
     inkscape:window-maximized="1" />
  <metadata
     id="metadata7">
    <rdf:RDF>
      <cc:Work
         rdf:about="">
        <dc:format>image/svg+xml</dc:format>
        <dc:type
           rdf:resource="http://purl.org/dc/dcmitype/StillImage" />
        <dc:title></dc:title>
      </cc:Work>
    </rdf:RDF>
  </metadata>
  <g
     inkscape:groupmode="layer"
     id="layer4"
     inkscape:label="eye-back"
     style="opacity:0.91999996;display:inline"
     transform="translate(0,-1004.3622)">
    <path
       id="path5142-0"
       style="fill:url(#radialGradient5218);fill-opacity:1;stroke:none"
       d="m 10.344116,1012.887 c -2.2420121,0.5004 -3.5767736,1.0008 -4.3457181,1.5013 -2.5224574,4.5992 -3.9597851,9.5784 -2.4186313,15.4072 1.2444228,3.1025 4.1745884,9.633 12.6823124,13.5453 3.408469,1.5674 6.86432,2.1855 12.929688,2.1187 4.475039,-0.5612 8.023203,-1.7361 12.56679,-7.1574 1.422178,-1.697 3.404898,-6.5041 2.961669,-9.3316 -3.165028,-7.4559 -21.940884,-14.5424 -32.124111,-15.7624 z"
       inkscape:connector-curvature="0"
       sodipodi:nodetypes="cccscsccc" />
    <path
       style="opacity:0.93999999;fill:#000000;stroke:none;display:inline;filter:url(#filter5181)"
       d="m 29.90637,888.44761 -9.59645,-30.05203 -4.54569,-41.66879 0,-26.76905 4.04061,-5.55584 18.68783,1.76777 28.78934,-2.27284 -5.80837,2.52538 -15.90991,6.56599 C 30.2544,820.9876 23.00684,853.29828 29.90637,888.44761 z"
       id="path5185"
       inkscape:connector-curvature="0"
       sodipodi:nodetypes="cccccccccc"
       transform="matrix(0.15643773,0,0,0.15643773,-1.2406254,890.29439)" />
  </g>
  <g
     inkscape:groupmode="layer"
     id="layer3"
     inkscape:label="lines"
     style="opacity:0.93999999;display:inline;filter:url(#filter5181)"
     transform="translate(0,-1004.3622)">
    <path
       style="font-size:medium;font-style:normal;font-variant:normal;font-weight:normal;font-stretch:normal;text-indent:0;text-align:start;text-decoration:none;line-height:normal;letter-spacing:normal;word-spacing:normal;text-transform:none;direction:ltr;block-progression:tb;writing-mode:lr-tb;text-anchor:start;baseline-shift:baseline;color:#000000;fill:#000000;fill-opacity:1;stroke:none;stroke-width:4;marker:none;visibility:visible;display:inline;overflow:visible;enable-background:accumulate;font-family:Sans;-inkscape-font-specification:Sans"
       d="m 6.4443762,1011.9723 c -2.6335847,0.3139 -4.6149111,0.2052 -4.6149111,0.2052 l -0.2199926,-0.039 c -0.3206879,0.4067 -0.67032906,0.9961 -0.70396738,1.9165 l 0.0864203,0.5745 c 0.61986338,2.5902 -0.6290409,8.7377 1.23352448,15.3625 2.2147796,7.8775 9.0258301,12.5539 14.5340391,14.2603 3.30022,1.0225 6.706484,1.8379 11.688835,1.8137 5.529527,-0.027 14.850716,-2.3064 14.850716,-2.3064 0,0 -9.365506,0.9913 -14.860494,0.742 -5.565294,-0.2526 -8.434847,-1.034 -11.88768,-2.3857 -6.456955,-2.5275 -11.2955914,-7.7936 -12.6519014,-12.6764 -1.6038217,-5.7739 -2.3742819,-15.022 -2.3677096,-15.2232 l 0.4204291,-1.0853 c 0.3016629,0.046 2.0454673,0.6878 4.5415821,0.4798 2.4464848,-0.2039 3.3900327,-0.3026 6.0668508,0.018 5.055363,0.6056 11.841932,2.2109 17.956118,4.8503 6.114183,2.6394 11.546359,6.2156 13.937624,10.452 2.496233,4.4223 3.166791,8.4299 3.166791,8.4299 0,0 -0.08591,-5.4927 -2.624149,-9.9894 -2.515134,-4.4559 -8.052745,-8.2877 -14.230944,-10.9548 -6.1782,-2.667 -13.001055,-4.0271 -18.132111,-4.6141 -2.045815,-0.234 -4.4721914,-0.035 -6.1890694,0.1695 z"
       id="path3838"
       inkscape:connector-curvature="0"
       sodipodi:nodetypes="cccccssscsssccsssscssssc" />
    <path
       style="fill:none;stroke:#000000;stroke-width:0.4693132;stroke-linecap:butt;stroke-linejoin:miter;stroke-miterlimit:4;stroke-opacity:1;stroke-dasharray:none"
       d="m 29.386243,1045.4403 c 4.487969,-0.2852 9.497578,-3.3124 12.372314,-7.1382 1.354069,-1.8021 4.082995,-7.81 2.320712,-10.9974"
       id="path5140"
       inkscape:connector-curvature="0"
       sodipodi:nodetypes="csc" />
    <path
       style="fill:none;stroke:#000000;stroke-width:0.15643772px;stroke-linecap:butt;stroke-linejoin:miter;stroke-opacity:1"
       d="m 10.818195,1013.3215 c -3.3086901,0.026 -4.0903609,0.5269 -4.8593001,1.0273 -2.5224627,4.5992 -3.9202821,9.6179 -2.2518705,15.684"
       id="path5142"
       inkscape:connector-curvature="0"
       sodipodi:nodetypes="ccc" />
  </g>
  <g
     inkscape:groupmode="layer"
     id="layer5"
     inkscape:label="Center"
     style="display:inline"
     transform="translate(0,-1004.3622)">
    <path
       style="opacity:0.51152074;fill:url(#linearGradient5249);fill-opacity:1;stroke:none;display:inline;filter:url(#filter5396)"
       d="m 339.29888,453.09501 c 32.73358,-45.53885 24.56025,-88.54637 7.21152,-126.49123 -28.09178,36.05156 -23.88187,82.84238 -7.21152,126.49123 z"
       id="path5144-3"
       inkscape:connector-curvature="0"
       sodipodi:nodetypes="ccc"
       transform="matrix(0.39969772,0,0,0.17005558,-113.12944,960.38585)" />
  </g>
  <g
     inkscape:groupmode="layer"
     id="layer10"
     inkscape:label="center-lines"
     style="display:inline">
    <path
       style="opacity:0.1;fill:#000000;fill-opacity:1;stroke:none;display:inline;enable-background:new"
       d="m 22.794365,30.675297 c 1.156265,-1.001607 3.657951,0.111654 8.19251,1.374719 -2.104725,-1.134569 -5.927559,-4.446032 -5.559844,-4.972135 0.411224,-0.686281 5.32421,1.601413 9.061211,2.327723 -1.71734,-0.811154 -9.072856,-3.463319 -8.576505,-4.5229 0.177481,-0.378871 7.594685,1.600502 9.944165,1.940683 -5.8153,-1.757314 -9.732487,-3.506925 -9.697076,-3.958353 0.09522,-1.213867 10.015035,1.570609 10.060109,1.554219 0.417604,-0.151861 -9.957695,-3.526186 -9.959824,-3.892688 -0.0027,-0.454754 8.060874,0.0378 9.024761,0.188641 -1.205731,-0.258261 -9.021896,-1.212431 -9.176813,-2.357539 -0.04682,-0.346076 3.335264,-0.497686 6.885094,-0.888493 -3.170228,-0.581286 -7.254564,-1.485287 -7.383455,-1.824535 -0.162666,-0.428145 0.794895,-1.22786 2.853399,-1.271303 -2.578936,-0.337147 -3.285265,-0.974282 -3.538944,-1.633233 -0.505229,-1.312376 -0.276831,0.79354 -0.550533,0.236299 -1.209841,5.15228 -1.514587,14.341551 -1.578255,17.698895 z"
       id="path5144-3-3"
       inkscape:connector-curvature="0"
       sodipodi:nodetypes="ccccscssscscscscc" />
    <path
       style="opacity:0.2;fill:#ffffff;fill-opacity:1;stroke:none;display:inline;enable-background:new"
       d="m 24.611234,12.837502 c -0.969843,1.037953 -3.787706,0.970531 -7.630572,0.12006 1.787837,0.914538 5.500268,2.305074 5.193415,2.831936 -0.342418,0.682036 -5.075033,-1.269577 -8.23961,-1.67223 1.457907,0.637583 7.696005,2.589094 7.284459,3.631522 -0.147157,0.372737 -6.432297,-0.936267 -8.421004,-1.079017 4.929288,1.221036 7.890421,2.57581 7.863913,3.006461 -0.07128,1.158003 -8.114574,-0.718613 -8.152552,-0.699627 -0.351868,0.175906 7.932463,2.836962 7.937045,3.184236 0.0058,0.4309 -6.914214,-0.196278 -7.730178,-0.265534 1.021221,0.152592 8.214787,1.288817 8.354439,2.362504 0.04221,0.32449 -3.814449,0.423711 -6.816097,0.59442 1.562316,0.252844 7.12852,1.845873 7.240054,2.157612 0.140759,0.393429 -3.344315,0.925418 -5.084137,1.124072 1.906443,0.509024 5.516941,1.384014 5.73639,1.989277 0.437057,1.205454 0.428631,-0.0013 0.664235,0.506023 0.983623,-4.976795 1.771863,-14.604158 1.8002,-17.791715 z"
       id="path5144-3-3-3"
       inkscape:connector-curvature="0"
       sodipodi:nodetypes="ccccscssscscscscc" />
    <path
       style="opacity:0.1;fill:#000000;fill-opacity:1;stroke:none;display:inline;enable-background:new"
       d="m 24.894192,14.136061 c -0.969843,1.037953 -3.787706,0.970531 -7.630572,0.12006 1.787837,0.914538 5.500268,2.305074 5.193415,2.831936 -0.342418,0.682036 -5.075033,-1.269577 -8.23961,-1.67223 1.457907,0.637583 7.696005,2.589094 7.284459,3.631522 -0.147157,0.372737 -6.432297,-0.936267 -8.421004,-1.079017 4.929288,1.221036 7.890421,2.57581 7.863913,3.006461 -0.07128,1.158003 -8.114574,-0.718613 -8.152552,-0.699627 -0.351868,0.175906 8.208677,2.229292 8.213259,2.576566 0.0058,0.4309 -7.190428,0.411392 -8.006392,0.342136 1.021221,0.152592 7.828088,1.123089 7.96774,2.196776 0.04221,0.32449 -2.82008,1.086623 -5.821728,1.257332 1.562316,0.252844 6.74182,1.901116 6.853354,2.212855 0.140759,0.393429 -3.344315,0.593962 -5.084137,0.792616 2.182657,0.122325 5.68267,1.273529 5.902119,1.878792 0.437057,1.205454 0.04193,-0.111779 0.277536,0.395537 0.983623,-4.976795 1.771863,-14.604158 1.8002,-17.791715 z"
       id="path5144-3-3-3-3"
       inkscape:connector-curvature="0"
       sodipodi:nodetypes="ccccscssscscscscc" />
    <path
       style="opacity:0.2;fill:#ffffff;fill-opacity:1;stroke:none;display:inline;enable-background:new"
       d="m 22.863681,31.5704 c 1.156265,-0.972765 1.669213,-0.03502 4.712219,2.020316 -0.7789,-1.709568 -3.267582,-4.680158 -2.899867,-5.191111 0.411224,-0.666519 4.487242,1.702411 8.224243,2.407806 -1.71734,-0.787796 -7.729225,-3.72578 -7.232874,-4.75485 0.177481,-0.367961 8.571248,2.413789 10.920728,2.744175 -5.8153,-1.706711 -10.513737,-4.383627 -10.478326,-4.822055 0.09522,-1.178913 10.022887,1.619185 10.067961,1.603268 0.417604,-0.147489 -9.876794,-3.597416 -9.878923,-3.953365 -0.0027,-0.441659 7.427545,0.468198 9.054345,0.504209 -1.205731,-0.250825 -8.940995,-1.485519 -9.095912,-2.597652 -0.04682,-0.33611 4.580189,-0.266751 8.185261,-0.550135 -1.844403,-0.403592 -8.328208,-1.492886 -8.457099,-1.822364 -0.162666,-0.415816 2.365724,-1.431074 4.424228,-1.473267 -2.578936,-0.327438 -4.930293,-0.0045 -5.223034,-1.113255 -0.350012,-1.325637 -0.02905,-0.45295 -0.302754,-0.994145 -1.209841,5.003915 -1.956528,14.731759 -2.020196,17.992425 z"
       id="path5144-3-3-5"
       inkscape:connector-curvature="0"
       sodipodi:nodetypes="ccccscssscscscscc" />
  </g>
  <g
     inkscape:groupmode="layer"
     id="layer6"
     inkscape:label="Center-black"
     style="display:inline"
     transform="translate(0,-1004.3622)">
    <path
       style="opacity:0.93999999;fill:#000000;stroke:#000000;stroke-width:1px;stroke-linecap:butt;stroke-linejoin:miter;stroke-opacity:1;display:inline;filter:url(#filter5181-0)"
       d="m 153.51878,930.86029 c 25.52805,-34.40715 28.91728,-73.59622 10.71429,-121.42857 -23.40572,33.08256 -28.86488,73.65542 -10.71429,121.42857 z"
       id="path5144"
       inkscape:connector-curvature="0"
       sodipodi:nodetypes="ccc"
       transform="matrix(0.15643773,0,0,0.15643773,-1.2406254,890.29439)" />
  </g>
  <g
     inkscape:groupmode="layer"
     id="layer7"
     inkscape:label="shadows"
     style="display:inline"
     transform="translate(0,-1004.3622)">
    <path
       style="opacity:0.26728109;fill:url(#linearGradient5390);fill-opacity:1;stroke:none;filter:url(#filter5368)"
       d="m 47.28432,793.75249 c 0,0 -4.72156,39.98661 -1.51523,59.599 3.09354,18.92248 3.8626,31.98674 19.69798,54.04316 14.14213,19.69797 47.18445,42.23355 86.87311,46.46701 37.88072,4.04061 67.13099,-3.68622 96.46957,-28.28426 25.81442,-21.64333 37.88073,-51.01271 37.88073,-51.01271 0,0 11.61675,4.54569 9.09137,14.64721 -2.52538,10.10153 -4.54569,22.72844 -4.54569,22.72844 l -9.59645,24.24366 -12.6269,17.67767 -20.20305,17.17259 -19.69798,12.12183 -25.75889,8.5863 -47.98224,-1.01016 c 0,0 -76.7716,-6.56599 -114.65232,-77.27667 -37.88072,-70.71067 6.56599,-119.70307 6.56599,-119.70307 z"
       id="path5319"
       inkscape:connector-curvature="0"
       sodipodi:nodetypes="csssscscccccccsc"
       transform="matrix(0.15643773,0,0,0.15643773,-1.2406254,890.29439)" />
  </g>
  <g
     inkscape:groupmode="layer"
     id="layer8"
     inkscape:label="blink"
     style="display:inline"
     transform="translate(0,-1004.3622)">
    <path
       style="opacity:0.43404254;fill:#fbffff;fill-opacity:1;stroke:none"
       d="m 18.42583,1030.564 c -0.317938,-2.6903 -0.08645,-4.2937 0.111744,-9.2746 -4.39858,-1.0912 -6.347752,-2.1024 -9.2450832,-3.9628 -4.3074267,5.2401 -2.5790985,11.4085 -0.3646624,14.5782 2.9868286,0.091 5.9336606,0.3011 9.4980016,-1.3408 z"
       id="path5372"
       inkscape:connector-curvature="0"
       sodipodi:nodetypes="ccccc" />
  </g>
</svg>
