<?xml version="1.0" encoding="UTF-8" standalone="no"?>
<!-- Created with Inkscape (http://www.inkscape.org/) -->

<svg
   xmlns:dc="http://purl.org/dc/elements/1.1/"
   xmlns:cc="http://creativecommons.org/ns#"
   xmlns:rdf="http://www.w3.org/1999/02/22-rdf-syntax-ns#"
   xmlns:svg="http://www.w3.org/2000/svg"
   xmlns="http://www.w3.org/2000/svg"
   xmlns:sodipodi="http://sodipodi.sourceforge.net/DTD/sodipodi-0.dtd"
   xmlns:inkscape="http://www.inkscape.org/namespaces/inkscape"
   width="16"
   height="16"
   id="svg2"
   version="1.1"
   inkscape:version="0.48.0 r9654"
   sodipodi:docname="chain-small.svg"
   inkscape:export-filename="/home/il/Projects/CatEye/CatEye.UI.Gtk.Widgets/res/chain.png"
   inkscape:export-xdpi="73.125"
   inkscape:export-ydpi="73.125">
  <defs
     id="defs4" />
  <sodipodi:namedview
     id="base"
     pagecolor="#ffffff"
     bordercolor="#666666"
     borderopacity="1.0"
     inkscape:pageopacity="0.0"
     inkscape:pageshadow="2"
     inkscape:zoom="11.2"
     inkscape:cx="-9.142589"
     inkscape:cy="20.040566"
     inkscape:document-units="px"
     inkscape:current-layer="layer1"
     showgrid="false"
     inkscape:window-width="1280"
     inkscape:window-height="946"
     inkscape:window-x="1920"
     inkscape:window-y="25"
     inkscape:window-maximized="1" />
  <metadata
     id="metadata7">
    <rdf:RDF>
      <cc:Work
         rdf:about="">
        <dc:format>image/svg+xml</dc:format>
        <dc:type
           rdf:resource="http://purl.org/dc/dcmitype/StillImage" />
        <dc:title></dc:title>
      </cc:Work>
    </rdf:RDF>
  </metadata>
  <g
     inkscape:label="Layer 1"
     inkscape:groupmode="layer"
     id="layer1"
     transform="translate(0,-1036.3622)">
    <path
       style="font-size:medium;font-style:normal;font-variant:normal;font-weight:normal;font-stretch:normal;text-indent:0;text-align:start;text-decoration:none;line-height:normal;letter-spacing:normal;word-spacing:normal;text-transform:none;direction:ltr;block-progression:tb;writing-mode:lr-tb;text-anchor:start;baseline-shift:baseline;color:#000000;fill:#000000;fill-opacity:1;stroke:none;stroke-width:1.5;marker:none;visibility:visible;display:inline;overflow:visible;enable-background:accumulate;font-family:Sans;-inkscape-font-specification:Sans"
       d="m 2.0675862,1038.3985 c -1.45027039,1.4502 -1.45030143,3.817 0,5.2672 l 2.2946485,2.2946 c -0.097335,-0.7563 -0.032064,-1.5471 0.23468,-2.2685 l -1.2777021,-1.2777 c -0.7785951,-0.7787 -0.7785188,-1.9854 0,-2.764 l 0.026076,-0.026 c 0.7785191,-0.7786 2.0114892,-0.8047 2.7900843,-0.026 l 2.4250259,2.425 c 0.7785121,0.7785 0.7524437,2.0114 -0.026079,2.7901 l -0.026079,0.026 c -0.1562391,0.1562 -0.3376816,0.2715 -0.5215101,0.365 -0.044015,0.2915 0.016131,0.5897 0.2607544,0.8343 l 0.6518898,0.6521 c 0.3069002,-0.1666 0.601581,-0.341 0.8604925,-0.5999 l 0.02608,-0.026 c 1.4502694,-1.4502 1.4763764,-3.8429 0.02608,-5.2933 l -2.4250268,-2.425 c -1.4503019,-1.4502 -3.8430673,-1.4241 -5.2933377,0.026 l -0.026076,0.026 z"
       id="rect4403"
       inkscape:connector-curvature="0" />
    <path
       inkscape:connector-curvature="0"
       style="font-size:medium;font-style:normal;font-variant:normal;font-weight:normal;font-stretch:normal;text-indent:0;text-align:start;text-decoration:none;line-height:normal;letter-spacing:normal;word-spacing:normal;text-transform:none;direction:ltr;block-progression:tb;writing-mode:lr-tb;text-anchor:start;baseline-shift:baseline;color:#000000;fill:#000000;fill-opacity:1;stroke:none;stroke-width:1.5;marker:none;visibility:visible;display:inline;overflow:visible;enable-background:accumulate;font-family:Sans;-inkscape-font-specification:Sans"
       d="m 14.02863,1050.2552 c 1.45027,-1.4502 1.45026,-3.817 -4.2e-5,-5.2673 l -2.294649,-2.2947 c 0.0974,0.7564 0.03213,1.5474 -0.234638,2.2686 l 1.27766,1.2778 c 0.778595,0.7785 0.77856,1.9854 4.1e-5,2.764 l -0.02608,0.026 c -0.778518,0.7786 -2.011531,0.8047 -2.7901254,0.026 l -2.4249848,-2.425 c -0.7785122,-0.7785 -0.752485,-2.0116 0.026032,-2.7901 l 0.026079,-0.026 c 0.1562391,-0.1562 0.3379837,-0.2712 0.521719,-0.3649 0.044016,-0.2914 -0.016143,-0.5897 -0.2607969,-0.8343 l -0.6518473,-0.6519 c -0.3067739,0.1665 -0.6016234,0.3408 -0.8605346,0.5997 l -0.026076,0.026 c -1.4502704,1.4502 -1.4763351,3.843 -0.026034,5.2933 l 2.4249847,2.425 c 1.4503014,1.4502 3.8431094,1.4241 5.2933794,-0.026 l 0.02608,-0.026 z"
       id="rect4403-9" />
  </g>
</svg>
